<svg xmlns="http://www.w3.org/2000/svg" xmlns:xlink="http://www.w3.org/1999/xlink" width="266" zoomAndPan="magnify" viewBox="0 0 199.5 54.75" height="73" preserveAspectRatio="xMidYMid meet" version="1.0"><defs><g/><clipPath id="eac6290649"><path d="M 6 5.105469 L 49.828125 5.105469 L 49.828125 49.265625 L 6 49.265625 Z M 6 5.105469 " clip-rule="nonzero"/></clipPath><clipPath id="44b46c894d"><path d="M 31.03125 34.902344 C 33.785156 34.902344 35.007812 37.191406 36.839844 39.027344 C 37.757812 39.945312 39.4375 39.945312 40.355469 39.027344 L 44.785156 34.59375 C 45.703125 33.679688 45.703125 31.996094 44.785156 31.082031 L 40.355469 26.648438 C 38.671875 24.96875 36.6875 23.898438 38.0625 22.828125 C 38.671875 22.371094 39.132812 22.066406 40.199219 22.066406 C 41.882812 22.066406 42.492188 23.441406 43.714844 24.511719 C 44.328125 25.121094 45.242188 25.121094 45.855469 24.511719 L 48.605469 21.761719 C 49.214844 21.148438 49.214844 20.230469 48.605469 19.621094 L 45.855469 16.871094 C 45.242188 16.257812 44.328125 16.257812 43.714844 16.871094 C 42.644531 17.941406 41.730469 19.46875 40.199219 19.46875 C 38.671875 19.46875 37.757812 17.941406 36.6875 16.871094 C 36.074219 16.257812 35.160156 16.257812 34.546875 16.871094 L 31.796875 19.621094 C 31.1875 20.230469 31.1875 21.148438 31.796875 21.761719 C 34.089844 24.050781 37.910156 25.425781 36.074219 27.566406 C 34.699219 29.246094 33.171875 31.082031 31.03125 31.082031 C 28.4375 31.082031 26.90625 28.484375 25.074219 26.648438 C 24.15625 25.734375 22.476562 25.734375 21.558594 26.648438 L 20.488281 27.71875 L 17.128906 31.082031 C 16.210938 31.996094 16.210938 33.679688 17.128906 34.59375 L 20.796875 38.261719 L 21.558594 39.027344 C 22.476562 39.945312 24.15625 39.945312 25.074219 39.027344 C 27.058594 37.039062 28.128906 34.902344 31.03125 34.902344 Z M 26.449219 17.636719 L 35.007812 26.191406 C 33.9375 27.566406 32.410156 29.246094 31.03125 29.246094 C 29.199219 29.246094 27.367188 26.496094 26.144531 25.273438 C 24.617188 23.746094 22.019531 23.746094 20.335938 25.273438 L 15.90625 29.707031 C 14.378906 31.234375 14.378906 33.832031 15.90625 35.511719 L 20.335938 39.945312 C 21.863281 41.472656 24.460938 41.472656 26.144531 39.945312 C 27.519531 38.570312 28.894531 36.277344 31.03125 36.277344 C 32.714844 36.277344 33.9375 37.804688 35.007812 39.179688 L 26.449219 47.738281 C 24.617188 49.570312 21.710938 49.570312 19.878906 47.738281 L 8.113281 35.972656 C 6.28125 34.136719 6.28125 31.234375 8.113281 29.402344 L 19.878906 17.636719 C 21.710938 15.800781 24.617188 15.800781 26.449219 17.636719 Z M 42.035156 8.621094 L 43.714844 10.300781 C 44.175781 10.757812 44.9375 10.757812 45.394531 10.300781 L 47.078125 8.621094 C 47.535156 8.160156 47.535156 7.398438 47.078125 6.9375 L 45.394531 5.257812 C 44.9375 4.800781 44.175781 4.800781 43.714844 5.257812 L 42.035156 6.9375 C 41.578125 7.398438 41.578125 8.160156 42.035156 8.621094 Z M 42.035156 8.621094 " clip-rule="evenodd"/></clipPath><linearGradient x1="0.115" gradientTransform="matrix(15.280021, 0, 0, 15.280021, 6.585118, 5.105174)" y1="3.025" x2="2.965" gradientUnits="userSpaceOnUse" y2="0.175" id="8a768398fd"><stop stop-opacity="1" stop-color="rgb(0%, 39.199829%, 60.398865%)" offset="0"/><stop stop-opacity="1" stop-color="rgb(0%, 39.199829%, 60.398865%)" offset="0.125"/><stop stop-opacity="1" stop-color="rgb(0%, 39.199829%, 60.398865%)" offset="0.15625"/><stop stop-opacity="1" stop-color="rgb(0%, 39.280701%, 60.450745%)" offset="0.171875"/><stop stop-opacity="1" stop-color="rgb(0%, 39.732361%, 60.746765%)" offset="0.175781"/><stop stop-opacity="1" stop-color="rgb(0%, 40.104675%, 60.98938%)" offset="0.179688"/><stop stop-opacity="1" stop-color="rgb(0%, 40.47699%, 61.230469%)" offset="0.183594"/><stop stop-opacity="1" stop-color="rgb(0%, 40.849304%, 61.473083%)" offset="0.1875"/><stop stop-opacity="1" stop-color="rgb(0%, 41.220093%, 61.715698%)" offset="0.191406"/><stop stop-opacity="1" stop-color="rgb(0%, 41.592407%, 61.958313%)" offset="0.195312"/><stop stop-opacity="1" stop-color="rgb(0%, 41.964722%, 62.199402%)" offset="0.199219"/><stop stop-opacity="1" stop-color="rgb(0%, 42.337036%, 62.442017%)" offset="0.203125"/><stop stop-opacity="1" stop-color="rgb(0%, 42.707825%, 62.684631%)" offset="0.207031"/><stop stop-opacity="1" stop-color="rgb(0%, 43.080139%, 62.927246%)" offset="0.210937"/><stop stop-opacity="1" stop-color="rgb(0%, 43.450928%, 63.168335%)" offset="0.214844"/><stop stop-opacity="1" stop-color="rgb(0%, 43.823242%, 63.41095%)" offset="0.21875"/><stop stop-opacity="1" stop-color="rgb(0%, 44.195557%, 63.653564%)" offset="0.222656"/><stop stop-opacity="1" stop-color="rgb(0%, 44.567871%, 63.896179%)" offset="0.226562"/><stop stop-opacity="1" stop-color="rgb(0%, 44.93866%, 64.137268%)" offset="0.230469"/><stop stop-opacity="1" stop-color="rgb(0%, 45.310974%, 64.379883%)" offset="0.234375"/><stop stop-opacity="1" stop-color="rgb(0%, 45.683289%, 64.622498%)" offset="0.238281"/><stop stop-opacity="1" stop-color="rgb(0%, 46.055603%, 64.865112%)" offset="0.242187"/><stop stop-opacity="1" stop-color="rgb(0%, 46.426392%, 65.106201%)" offset="0.246094"/><stop stop-opacity="1" stop-color="rgb(0%, 46.798706%, 65.348816%)" offset="0.25"/><stop stop-opacity="1" stop-color="rgb(0%, 47.171021%, 65.591431%)" offset="0.253906"/><stop stop-opacity="1" stop-color="rgb(0%, 47.543335%, 65.834045%)" offset="0.257812"/><stop stop-opacity="1" stop-color="rgb(0%, 47.914124%, 66.075134%)" offset="0.261719"/><stop stop-opacity="1" stop-color="rgb(0%, 48.286438%, 66.317749%)" offset="0.265625"/><stop stop-opacity="1" stop-color="rgb(0%, 48.658752%, 66.560364%)" offset="0.269531"/><stop stop-opacity="1" stop-color="rgb(0%, 49.031067%, 66.802979%)" offset="0.273438"/><stop stop-opacity="1" stop-color="rgb(0%, 49.401855%, 67.044067%)" offset="0.277344"/><stop stop-opacity="1" stop-color="rgb(0%, 49.77417%, 67.286682%)" offset="0.28125"/><stop stop-opacity="1" stop-color="rgb(0%, 50.146484%, 67.529297%)" offset="0.285156"/><stop stop-opacity="1" stop-color="rgb(0%, 50.518799%, 67.771912%)" offset="0.289062"/><stop stop-opacity="1" stop-color="rgb(0%, 50.889587%, 68.013%)" offset="0.292969"/><stop stop-opacity="1" stop-color="rgb(0%, 51.261902%, 68.255615%)" offset="0.296875"/><stop stop-opacity="1" stop-color="rgb(0%, 51.634216%, 68.49823%)" offset="0.300781"/><stop stop-opacity="1" stop-color="rgb(0%, 52.006531%, 68.740845%)" offset="0.304688"/><stop stop-opacity="1" stop-color="rgb(0%, 52.377319%, 68.981934%)" offset="0.308594"/><stop stop-opacity="1" stop-color="rgb(0%, 52.749634%, 69.224548%)" offset="0.3125"/><stop stop-opacity="1" stop-color="rgb(0%, 53.121948%, 69.467163%)" offset="0.316406"/><stop stop-opacity="1" stop-color="rgb(0%, 53.494263%, 69.709778%)" offset="0.320312"/><stop stop-opacity="1" stop-color="rgb(0%, 53.865051%, 69.950867%)" offset="0.324219"/><stop stop-opacity="1" stop-color="rgb(0%, 54.237366%, 70.193481%)" offset="0.328125"/><stop stop-opacity="1" stop-color="rgb(0%, 54.60968%, 70.436096%)" offset="0.332031"/><stop stop-opacity="1" stop-color="rgb(0%, 54.981995%, 70.678711%)" offset="0.335938"/><stop stop-opacity="1" stop-color="rgb(0%, 55.352783%, 70.9198%)" offset="0.339844"/><stop stop-opacity="1" stop-color="rgb(0%, 55.725098%, 71.162415%)" offset="0.34375"/><stop stop-opacity="1" stop-color="rgb(0%, 56.095886%, 71.405029%)" offset="0.347656"/><stop stop-opacity="1" stop-color="rgb(0%, 56.468201%, 71.647644%)" offset="0.351562"/><stop stop-opacity="1" stop-color="rgb(0%, 56.840515%, 71.888733%)" offset="0.355469"/><stop stop-opacity="1" stop-color="rgb(0%, 57.21283%, 72.131348%)" offset="0.359375"/><stop stop-opacity="1" stop-color="rgb(0%, 57.583618%, 72.373962%)" offset="0.363281"/><stop stop-opacity="1" stop-color="rgb(0%, 57.955933%, 72.616577%)" offset="0.367187"/><stop stop-opacity="1" stop-color="rgb(0%, 58.328247%, 72.857666%)" offset="0.371094"/><stop stop-opacity="1" stop-color="rgb(0%, 58.700562%, 73.100281%)" offset="0.375"/><stop stop-opacity="1" stop-color="rgb(0%, 59.07135%, 73.342896%)" offset="0.378906"/><stop stop-opacity="1" stop-color="rgb(0%, 59.443665%, 73.58551%)" offset="0.382812"/><stop stop-opacity="1" stop-color="rgb(0%, 59.815979%, 73.826599%)" offset="0.386719"/><stop stop-opacity="1" stop-color="rgb(0%, 60.188293%, 74.069214%)" offset="0.390625"/><stop stop-opacity="1" stop-color="rgb(0%, 60.559082%, 74.311829%)" offset="0.394531"/><stop stop-opacity="1" stop-color="rgb(0%, 60.931396%, 74.554443%)" offset="0.398438"/><stop stop-opacity="1" stop-color="rgb(0%, 61.303711%, 74.795532%)" offset="0.402344"/><stop stop-opacity="1" stop-color="rgb(0%, 61.676025%, 75.038147%)" offset="0.40625"/><stop stop-opacity="1" stop-color="rgb(0%, 62.046814%, 75.280762%)" offset="0.410156"/><stop stop-opacity="1" stop-color="rgb(0%, 62.419128%, 75.523376%)" offset="0.414062"/><stop stop-opacity="1" stop-color="rgb(0%, 62.791443%, 75.764465%)" offset="0.417969"/><stop stop-opacity="1" stop-color="rgb(0%, 63.163757%, 76.00708%)" offset="0.421875"/><stop stop-opacity="1" stop-color="rgb(0%, 63.534546%, 76.249695%)" offset="0.425781"/><stop stop-opacity="1" stop-color="rgb(0%, 63.90686%, 76.49231%)" offset="0.429687"/><stop stop-opacity="1" stop-color="rgb(0%, 64.279175%, 76.733398%)" offset="0.433594"/><stop stop-opacity="1" stop-color="rgb(0%, 64.651489%, 76.976013%)" offset="0.4375"/><stop stop-opacity="1" stop-color="rgb(0%, 65.022278%, 77.218628%)" offset="0.441406"/><stop stop-opacity="1" stop-color="rgb(0%, 65.394592%, 77.461243%)" offset="0.445312"/><stop stop-opacity="1" stop-color="rgb(0%, 65.766907%, 77.702332%)" offset="0.449219"/><stop stop-opacity="1" stop-color="rgb(0%, 66.139221%, 77.944946%)" offset="0.453125"/><stop stop-opacity="1" stop-color="rgb(0%, 66.51001%, 78.187561%)" offset="0.457031"/><stop stop-opacity="1" stop-color="rgb(0%, 66.882324%, 78.430176%)" offset="0.460938"/><stop stop-opacity="1" stop-color="rgb(0%, 67.253113%, 78.671265%)" offset="0.464844"/><stop stop-opacity="1" stop-color="rgb(0%, 67.625427%, 78.913879%)" offset="0.46875"/><stop stop-opacity="1" stop-color="rgb(0%, 67.997742%, 79.156494%)" offset="0.472656"/><stop stop-opacity="1" stop-color="rgb(0%, 68.370056%, 79.399109%)" offset="0.476562"/><stop stop-opacity="1" stop-color="rgb(0%, 68.740845%, 79.640198%)" offset="0.480469"/><stop stop-opacity="1" stop-color="rgb(0%, 69.113159%, 79.882812%)" offset="0.484375"/><stop stop-opacity="1" stop-color="rgb(0%, 69.485474%, 80.125427%)" offset="0.488281"/><stop stop-opacity="1" stop-color="rgb(0%, 69.857788%, 80.368042%)" offset="0.492188"/><stop stop-opacity="1" stop-color="rgb(0%, 70.228577%, 80.609131%)" offset="0.496094"/><stop stop-opacity="1" stop-color="rgb(0%, 70.600891%, 80.851746%)" offset="0.5"/><stop stop-opacity="1" stop-color="rgb(0%, 70.973206%, 81.09436%)" offset="0.503906"/><stop stop-opacity="1" stop-color="rgb(0%, 71.34552%, 81.336975%)" offset="0.507812"/><stop stop-opacity="1" stop-color="rgb(0%, 71.716309%, 81.578064%)" offset="0.511719"/><stop stop-opacity="1" stop-color="rgb(0%, 72.088623%, 81.820679%)" offset="0.515625"/><stop stop-opacity="1" stop-color="rgb(0%, 72.460938%, 82.063293%)" offset="0.519531"/><stop stop-opacity="1" stop-color="rgb(0%, 72.833252%, 82.305908%)" offset="0.523437"/><stop stop-opacity="1" stop-color="rgb(0%, 73.204041%, 82.546997%)" offset="0.527344"/><stop stop-opacity="1" stop-color="rgb(0%, 73.576355%, 82.789612%)" offset="0.53125"/><stop stop-opacity="1" stop-color="rgb(0%, 73.948669%, 83.032227%)" offset="0.535156"/><stop stop-opacity="1" stop-color="rgb(0%, 74.320984%, 83.274841%)" offset="0.539062"/><stop stop-opacity="1" stop-color="rgb(0%, 74.691772%, 83.51593%)" offset="0.542969"/><stop stop-opacity="1" stop-color="rgb(0%, 75.064087%, 83.758545%)" offset="0.546875"/><stop stop-opacity="1" stop-color="rgb(0%, 75.436401%, 84.00116%)" offset="0.550781"/><stop stop-opacity="1" stop-color="rgb(0%, 75.808716%, 84.243774%)" offset="0.554688"/><stop stop-opacity="1" stop-color="rgb(0%, 76.179504%, 84.484863%)" offset="0.558594"/><stop stop-opacity="1" stop-color="rgb(0%, 76.551819%, 84.727478%)" offset="0.5625"/><stop stop-opacity="1" stop-color="rgb(0%, 76.924133%, 84.970093%)" offset="0.566406"/><stop stop-opacity="1" stop-color="rgb(0%, 77.296448%, 85.212708%)" offset="0.570312"/><stop stop-opacity="1" stop-color="rgb(0%, 77.667236%, 85.453796%)" offset="0.574219"/><stop stop-opacity="1" stop-color="rgb(0%, 78.039551%, 85.696411%)" offset="0.578125"/><stop stop-opacity="1" stop-color="rgb(0%, 78.411865%, 85.939026%)" offset="0.582031"/><stop stop-opacity="1" stop-color="rgb(0%, 78.78418%, 86.181641%)" offset="0.585938"/><stop stop-opacity="1" stop-color="rgb(0%, 79.154968%, 86.422729%)" offset="0.589844"/><stop stop-opacity="1" stop-color="rgb(0%, 79.527283%, 86.665344%)" offset="0.59375"/><stop stop-opacity="1" stop-color="rgb(0%, 79.898071%, 86.907959%)" offset="0.597656"/><stop stop-opacity="1" stop-color="rgb(0%, 80.270386%, 87.150574%)" offset="0.601562"/><stop stop-opacity="1" stop-color="rgb(0%, 80.6427%, 87.391663%)" offset="0.605469"/><stop stop-opacity="1" stop-color="rgb(0%, 81.015015%, 87.634277%)" offset="0.609375"/><stop stop-opacity="1" stop-color="rgb(0%, 81.385803%, 87.876892%)" offset="0.613281"/><stop stop-opacity="1" stop-color="rgb(0%, 81.758118%, 88.119507%)" offset="0.617188"/><stop stop-opacity="1" stop-color="rgb(0%, 82.130432%, 88.360596%)" offset="0.621094"/><stop stop-opacity="1" stop-color="rgb(0%, 82.502747%, 88.60321%)" offset="0.625"/><stop stop-opacity="1" stop-color="rgb(0%, 82.873535%, 88.845825%)" offset="0.628906"/><stop stop-opacity="1" stop-color="rgb(0%, 83.24585%, 89.08844%)" offset="0.632812"/><stop stop-opacity="1" stop-color="rgb(0%, 83.618164%, 89.329529%)" offset="0.636719"/><stop stop-opacity="1" stop-color="rgb(0%, 83.990479%, 89.572144%)" offset="0.640625"/><stop stop-opacity="1" stop-color="rgb(0%, 84.361267%, 89.814758%)" offset="0.644531"/><stop stop-opacity="1" stop-color="rgb(0%, 84.733582%, 90.057373%)" offset="0.648438"/><stop stop-opacity="1" stop-color="rgb(0%, 85.105896%, 90.298462%)" offset="0.652344"/><stop stop-opacity="1" stop-color="rgb(0%, 85.47821%, 90.541077%)" offset="0.65625"/><stop stop-opacity="1" stop-color="rgb(0%, 85.848999%, 90.783691%)" offset="0.660156"/><stop stop-opacity="1" stop-color="rgb(0%, 86.221313%, 91.026306%)" offset="0.664062"/><stop stop-opacity="1" stop-color="rgb(0%, 86.593628%, 91.267395%)" offset="0.667969"/><stop stop-opacity="1" stop-color="rgb(0%, 86.965942%, 91.51001%)" offset="0.671875"/><stop stop-opacity="1" stop-color="rgb(0%, 87.336731%, 91.752625%)" offset="0.675781"/><stop stop-opacity="1" stop-color="rgb(0%, 87.709045%, 91.995239%)" offset="0.679687"/><stop stop-opacity="1" stop-color="rgb(0%, 88.08136%, 92.236328%)" offset="0.683594"/><stop stop-opacity="1" stop-color="rgb(0%, 88.453674%, 92.478943%)" offset="0.6875"/><stop stop-opacity="1" stop-color="rgb(0%, 88.824463%, 92.721558%)" offset="0.691406"/><stop stop-opacity="1" stop-color="rgb(0%, 89.196777%, 92.964172%)" offset="0.695312"/><stop stop-opacity="1" stop-color="rgb(0%, 89.569092%, 93.205261%)" offset="0.699219"/><stop stop-opacity="1" stop-color="rgb(0%, 89.941406%, 93.447876%)" offset="0.703125"/><stop stop-opacity="1" stop-color="rgb(0%, 90.312195%, 93.690491%)" offset="0.707031"/><stop stop-opacity="1" stop-color="rgb(0%, 90.684509%, 93.933105%)" offset="0.710937"/><stop stop-opacity="1" stop-color="rgb(0%, 91.055298%, 94.174194%)" offset="0.714844"/><stop stop-opacity="1" stop-color="rgb(0%, 91.427612%, 94.416809%)" offset="0.71875"/><stop stop-opacity="1" stop-color="rgb(0%, 91.799927%, 94.659424%)" offset="0.722656"/><stop stop-opacity="1" stop-color="rgb(0%, 92.172241%, 94.902039%)" offset="0.726562"/><stop stop-opacity="1" stop-color="rgb(0%, 92.54303%, 95.143127%)" offset="0.730469"/><stop stop-opacity="1" stop-color="rgb(0%, 92.915344%, 95.385742%)" offset="0.734375"/><stop stop-opacity="1" stop-color="rgb(0%, 93.287659%, 95.628357%)" offset="0.738281"/><stop stop-opacity="1" stop-color="rgb(0%, 93.659973%, 95.870972%)" offset="0.742188"/><stop stop-opacity="1" stop-color="rgb(0%, 94.030762%, 96.112061%)" offset="0.746094"/><stop stop-opacity="1" stop-color="rgb(0%, 94.403076%, 96.354675%)" offset="0.75"/><stop stop-opacity="1" stop-color="rgb(0%, 94.775391%, 96.59729%)" offset="0.753906"/><stop stop-opacity="1" stop-color="rgb(0%, 95.147705%, 96.839905%)" offset="0.757812"/><stop stop-opacity="1" stop-color="rgb(0%, 95.518494%, 97.080994%)" offset="0.761719"/><stop stop-opacity="1" stop-color="rgb(0%, 95.890808%, 97.323608%)" offset="0.765625"/><stop stop-opacity="1" stop-color="rgb(0%, 96.263123%, 97.566223%)" offset="0.769531"/><stop stop-opacity="1" stop-color="rgb(0%, 96.635437%, 97.808838%)" offset="0.773438"/><stop stop-opacity="1" stop-color="rgb(0%, 97.006226%, 98.049927%)" offset="0.777344"/><stop stop-opacity="1" stop-color="rgb(0%, 97.37854%, 98.292542%)" offset="0.78125"/><stop stop-opacity="1" stop-color="rgb(0%, 97.750854%, 98.535156%)" offset="0.785156"/><stop stop-opacity="1" stop-color="rgb(0%, 98.123169%, 98.777771%)" offset="0.789062"/><stop stop-opacity="1" stop-color="rgb(0%, 98.493958%, 99.01886%)" offset="0.792969"/><stop stop-opacity="1" stop-color="rgb(0%, 98.866272%, 99.261475%)" offset="0.796875"/><stop stop-opacity="1" stop-color="rgb(0%, 99.238586%, 99.504089%)" offset="0.800781"/><stop stop-opacity="1" stop-color="rgb(0%, 99.610901%, 99.746704%)" offset="0.804688"/><stop stop-opacity="1" stop-color="rgb(0%, 99.804688%, 99.873352%)" offset="0.8125"/><stop stop-opacity="1" stop-color="rgb(0%, 100%, 100%)" offset="0.875"/><stop stop-opacity="1" stop-color="rgb(0%, 100%, 100%)" offset="1"/></linearGradient></defs><g clip-path="url(#eac6290649)"><g clip-path="url(#44b46c894d)"><path fill="url(#8a768398fd)" d="M 6.28125 5.105469 L 6.28125 49.265625 L 49.214844 49.265625 L 49.214844 5.105469 Z M 6.28125 5.105469 " fill-rule="nonzero"/></g></g><g fill="#d9d9d9" fill-opacity="1"><g transform="translate(52.908689, 36.806001)"><g><path d="M 14.800781 -12.179688 C 17.15625 -12.976562 18.683594 -14.4375 18.683594 -17.191406 C 18.683594 -20.441406 16.660156 -22.265625 13.042969 -22.765625 C 11.945312 -22.898438 11.148438 -22.898438 10.054688 -22.898438 L 3.320312 -22.898438 L 3.320312 0 L 10.6875 0 C 11.746094 0 12.476562 0 13.605469 -0.164062 C 16.625 -0.628906 19.511719 -2.554688 19.511719 -6.738281 C 19.511719 -9.890625 17.820312 -11.480469 14.800781 -12.179688 Z M 6.171875 -20.574219 L 10.289062 -20.574219 C 10.820312 -20.574219 11.515625 -20.574219 12.113281 -20.507812 C 14.171875 -20.277344 15.628906 -19.214844 15.628906 -16.957031 C 15.628906 -14.933594 14.765625 -13.539062 12.410156 -13.175781 C 11.746094 -13.074219 11.183594 -13.042969 10.585938 -13.042969 L 6.171875 -13.042969 Z M 12.710938 -2.390625 C 12.277344 -2.355469 11.648438 -2.324219 11.117188 -2.324219 L 6.171875 -2.324219 L 6.171875 -10.71875 L 10.917969 -10.71875 C 11.449219 -10.71875 11.980469 -10.6875 12.742188 -10.585938 C 14.933594 -10.289062 16.460938 -9.257812 16.460938 -6.4375 C 16.460938 -3.949219 14.898438 -2.589844 12.710938 -2.390625 Z M 12.710938 -2.390625 "/></g></g></g><g fill="#d9d9d9" fill-opacity="1"><g transform="translate(77.561701, 36.806001)"><g><path d="M 20.308594 -20.574219 L 20.308594 -22.898438 L 1.128906 -22.898438 L 1.128906 -20.574219 L 9.292969 -20.574219 L 9.292969 0 L 12.144531 0 L 12.144531 -20.574219 Z M 20.308594 -20.574219 "/></g></g></g><g fill="#d9d9d9" fill-opacity="1"><g transform="translate(101.717018, 36.806001)"><g><path d="M 12.378906 -23.363281 C 5.875 -23.363281 1.558594 -18.316406 1.558594 -11.347656 C 1.558594 -4.644531 5.277344 0.464844 11.945312 0.464844 C 17.988281 0.464844 21.074219 -3.152344 21.503906 -7.300781 L 21.539062 -7.632812 L 18.683594 -7.632812 L 18.617188 -7.300781 C 17.953125 -4.015625 15.929688 -1.792969 12.113281 -1.792969 C 7.597656 -1.792969 4.746094 -5.839844 4.746094 -11.480469 C 4.746094 -17.023438 7.632812 -21.105469 12.3125 -21.105469 C 16.128906 -21.105469 18.152344 -18.882812 18.816406 -15.597656 L 18.882812 -15.265625 L 21.734375 -15.265625 L 21.703125 -15.597656 C 21.238281 -20.078125 18.183594 -23.363281 12.378906 -23.363281 Z M 12.378906 -23.363281 "/></g></g></g><g fill="#d9d9d9" fill-opacity="1"><g transform="translate(128.758947, 36.806001)"><g><path d="M 12.378906 -23.363281 C 5.875 -23.363281 1.558594 -18.316406 1.558594 -11.347656 C 1.558594 -4.644531 5.277344 0.464844 11.945312 0.464844 C 17.988281 0.464844 21.074219 -3.152344 21.503906 -7.300781 L 21.539062 -7.632812 L 18.683594 -7.632812 L 18.617188 -7.300781 C 17.953125 -4.015625 15.929688 -1.792969 12.113281 -1.792969 C 7.597656 -1.792969 4.746094 -5.839844 4.746094 -11.480469 C 4.746094 -17.023438 7.632812 -21.105469 12.3125 -21.105469 C 16.128906 -21.105469 18.152344 -18.882812 18.816406 -15.597656 L 18.882812 -15.265625 L 21.734375 -15.265625 L 21.703125 -15.597656 C 21.238281 -20.078125 18.183594 -23.363281 12.378906 -23.363281 Z M 12.378906 -23.363281 "/></g></g></g><g fill="#d9d9d9" fill-opacity="1"><g transform="translate(155.80088, 36.806001)"><g><path d="M 12.378906 -23.363281 C 5.875 -23.363281 1.558594 -18.316406 1.558594 -11.347656 C 1.558594 -4.644531 5.277344 0.464844 11.945312 0.464844 C 17.988281 0.464844 21.074219 -3.152344 21.503906 -7.300781 L 21.539062 -7.632812 L 18.683594 -7.632812 L 18.617188 -7.300781 C 17.953125 -4.015625 15.929688 -1.792969 12.113281 -1.792969 C 7.597656 -1.792969 4.746094 -5.839844 4.746094 -11.480469 C 4.746094 -17.023438 7.632812 -21.105469 12.3125 -21.105469 C 16.128906 -21.105469 18.152344 -18.882812 18.816406 -15.597656 L 18.882812 -15.265625 L 21.734375 -15.265625 L 21.703125 -15.597656 C 21.238281 -20.078125 18.183594 -23.363281 12.378906 -23.363281 Z M 12.378906 -23.363281 "/></g></g></g><g fill="#00ffff" fill-opacity="1"><g transform="translate(56.374063, 49.069523)"><g><path d="M 0.484375 -6.515625 L 3.6875 -6.515625 C 4.300781 -6.515625 4.78125 -6.363281 5.125 -6.0625 C 5.476562 -5.757812 5.65625 -5.316406 5.65625 -4.734375 C 5.65625 -4.441406 5.585938 -4.175781 5.453125 -3.9375 C 5.316406 -3.695312 5.128906 -3.515625 4.890625 -3.390625 C 5.210938 -3.265625 5.453125 -3.082031 5.609375 -2.84375 C 5.773438 -2.601562 5.859375 -2.289062 5.859375 -1.90625 C 5.859375 -1.519531 5.769531 -1.179688 5.59375 -0.890625 C 5.414062 -0.597656 5.171875 -0.375 4.859375 -0.21875 C 4.554688 -0.0703125 4.21875 0 3.84375 0 L 0.484375 0 Z M 3.421875 -3.875 C 3.660156 -3.875 3.851562 -3.9375 4 -4.0625 C 4.144531 -4.1875 4.21875 -4.382812 4.21875 -4.65625 C 4.21875 -4.957031 4.144531 -5.160156 4 -5.265625 C 3.863281 -5.378906 3.65625 -5.4375 3.375 -5.4375 L 1.90625 -5.4375 L 1.90625 -3.875 Z M 3.5 -1.078125 C 3.800781 -1.078125 4.03125 -1.140625 4.1875 -1.265625 C 4.351562 -1.390625 4.4375 -1.601562 4.4375 -1.90625 C 4.4375 -2.21875 4.351562 -2.441406 4.1875 -2.578125 C 4.019531 -2.710938 3.773438 -2.78125 3.453125 -2.78125 L 1.90625 -2.78125 L 1.90625 -1.078125 Z M 3.5 -1.078125 "/></g></g></g><g fill="#00ffff" fill-opacity="1"><g transform="translate(64.927738, 49.069523)"><g><path d="M 0.484375 -6.515625 L 1.90625 -6.515625 L 1.90625 0 L 0.484375 0 Z M 0.484375 -6.515625 "/></g></g></g><g fill="#00ffff" fill-opacity="1"><g transform="translate(69.713785, 49.069523)"><g><path d="M 2.046875 -5.328125 L 0.140625 -5.328125 L 0.140625 -6.515625 L 5.359375 -6.515625 L 5.359375 -5.328125 L 3.453125 -5.328125 L 3.453125 0 L 2.046875 0 Z M 2.046875 -5.328125 "/></g></g></g><g fill="#00ffff" fill-opacity="1"><g transform="translate(77.605326, 49.069523)"><g><path d="M 3.828125 0.140625 C 3.128906 0.140625 2.507812 0.00390625 1.96875 -0.265625 C 1.4375 -0.546875 1.023438 -0.941406 0.734375 -1.453125 C 0.441406 -1.960938 0.296875 -2.5625 0.296875 -3.25 C 0.296875 -3.945312 0.441406 -4.550781 0.734375 -5.0625 C 1.023438 -5.570312 1.4375 -5.960938 1.96875 -6.234375 C 2.507812 -6.515625 3.128906 -6.65625 3.828125 -6.65625 C 4.722656 -6.65625 5.472656 -6.453125 6.078125 -6.046875 L 6.078125 -4.703125 C 5.804688 -4.929688 5.492188 -5.097656 5.140625 -5.203125 C 4.796875 -5.304688 4.398438 -5.359375 3.953125 -5.359375 C 3.265625 -5.359375 2.722656 -5.164062 2.328125 -4.78125 C 1.941406 -4.40625 1.75 -3.894531 1.75 -3.25 C 1.75 -2.601562 1.945312 -2.085938 2.34375 -1.703125 C 2.738281 -1.328125 3.273438 -1.140625 3.953125 -1.140625 C 4.410156 -1.140625 4.816406 -1.191406 5.171875 -1.296875 C 5.523438 -1.410156 5.851562 -1.59375 6.15625 -1.84375 L 6.15625 -0.5 C 5.582031 -0.0703125 4.804688 0.140625 3.828125 0.140625 Z M 3.828125 0.140625 "/></g></g></g><g fill="#00ffff" fill-opacity="1"><g transform="translate(86.457428, 49.069523)"><g><path d="M 3.78125 0.140625 C 3.132812 0.140625 2.546875 0 2.015625 -0.28125 C 1.484375 -0.570312 1.0625 -0.972656 0.75 -1.484375 C 0.445312 -1.992188 0.296875 -2.582031 0.296875 -3.25 C 0.296875 -3.914062 0.445312 -4.503906 0.75 -5.015625 C 1.0625 -5.535156 1.484375 -5.9375 2.015625 -6.21875 C 2.546875 -6.507812 3.132812 -6.65625 3.78125 -6.65625 C 4.4375 -6.65625 5.023438 -6.507812 5.546875 -6.21875 C 6.078125 -5.9375 6.492188 -5.535156 6.796875 -5.015625 C 7.097656 -4.503906 7.25 -3.914062 7.25 -3.25 C 7.25 -2.582031 7.097656 -1.992188 6.796875 -1.484375 C 6.492188 -0.972656 6.078125 -0.570312 5.546875 -0.28125 C 5.023438 0 4.4375 0.140625 3.78125 0.140625 Z M 3.78125 -1.171875 C 4.15625 -1.171875 4.492188 -1.253906 4.796875 -1.421875 C 5.109375 -1.585938 5.351562 -1.828125 5.53125 -2.140625 C 5.71875 -2.460938 5.8125 -2.832031 5.8125 -3.25 C 5.8125 -3.664062 5.722656 -4.03125 5.546875 -4.34375 C 5.367188 -4.664062 5.125 -4.910156 4.8125 -5.078125 C 4.507812 -5.242188 4.164062 -5.328125 3.78125 -5.328125 C 3.394531 -5.328125 3.046875 -5.242188 2.734375 -5.078125 C 2.429688 -4.910156 2.191406 -4.664062 2.015625 -4.34375 C 1.835938 -4.03125 1.75 -3.664062 1.75 -3.25 C 1.75 -2.832031 1.835938 -2.460938 2.015625 -2.140625 C 2.191406 -1.828125 2.4375 -1.585938 2.75 -1.421875 C 3.0625 -1.253906 3.40625 -1.171875 3.78125 -1.171875 Z M 3.78125 -1.171875 "/></g></g></g><g fill="#00ffff" fill-opacity="1"><g transform="translate(96.400653, 49.069523)"><g><path d="M 0.484375 -6.515625 L 1.90625 -6.515625 L 1.90625 0 L 0.484375 0 Z M 0.484375 -6.515625 "/></g></g></g><g fill="#00ffff" fill-opacity="1"><g transform="translate(101.186702, 49.069523)"><g><path d="M 0.484375 -6.515625 L 1.859375 -6.515625 L 4.59375 -2.296875 L 4.59375 -6.515625 L 6 -6.515625 L 6 0 L 4.640625 0 L 1.90625 -4.21875 L 1.90625 0 L 0.484375 0 Z M 0.484375 -6.515625 "/></g></g></g><g fill="#00ffff" fill-opacity="1"><g transform="translate(110.066782, 49.069523)"><g/></g></g><g fill="#00ffff" fill-opacity="1"><g transform="translate(115.720128, 49.069523)"><g><path d="M 3.828125 0.140625 C 3.128906 0.140625 2.507812 0.00390625 1.96875 -0.265625 C 1.4375 -0.546875 1.023438 -0.941406 0.734375 -1.453125 C 0.441406 -1.960938 0.296875 -2.5625 0.296875 -3.25 C 0.296875 -3.945312 0.441406 -4.550781 0.734375 -5.0625 C 1.023438 -5.570312 1.4375 -5.960938 1.96875 -6.234375 C 2.507812 -6.515625 3.128906 -6.65625 3.828125 -6.65625 C 4.722656 -6.65625 5.472656 -6.453125 6.078125 -6.046875 L 6.078125 -4.703125 C 5.804688 -4.929688 5.492188 -5.097656 5.140625 -5.203125 C 4.796875 -5.304688 4.398438 -5.359375 3.953125 -5.359375 C 3.265625 -5.359375 2.722656 -5.164062 2.328125 -4.78125 C 1.941406 -4.40625 1.75 -3.894531 1.75 -3.25 C 1.75 -2.601562 1.945312 -2.085938 2.34375 -1.703125 C 2.738281 -1.328125 3.273438 -1.140625 3.953125 -1.140625 C 4.410156 -1.140625 4.816406 -1.191406 5.171875 -1.296875 C 5.523438 -1.410156 5.851562 -1.59375 6.15625 -1.84375 L 6.15625 -0.5 C 5.582031 -0.0703125 4.804688 0.140625 3.828125 0.140625 Z M 3.828125 0.140625 "/></g></g></g><g fill="#00ffff" fill-opacity="1"><g transform="translate(124.572229, 49.069523)"><g><path d="M 3.78125 0.140625 C 3.132812 0.140625 2.546875 0 2.015625 -0.28125 C 1.484375 -0.570312 1.0625 -0.972656 0.75 -1.484375 C 0.445312 -1.992188 0.296875 -2.582031 0.296875 -3.25 C 0.296875 -3.914062 0.445312 -4.503906 0.75 -5.015625 C 1.0625 -5.535156 1.484375 -5.9375 2.015625 -6.21875 C 2.546875 -6.507812 3.132812 -6.65625 3.78125 -6.65625 C 4.4375 -6.65625 5.023438 -6.507812 5.546875 -6.21875 C 6.078125 -5.9375 6.492188 -5.535156 6.796875 -5.015625 C 7.097656 -4.503906 7.25 -3.914062 7.25 -3.25 C 7.25 -2.582031 7.097656 -1.992188 6.796875 -1.484375 C 6.492188 -0.972656 6.078125 -0.570312 5.546875 -0.28125 C 5.023438 0 4.4375 0.140625 3.78125 0.140625 Z M 3.78125 -1.171875 C 4.15625 -1.171875 4.492188 -1.253906 4.796875 -1.421875 C 5.109375 -1.585938 5.351562 -1.828125 5.53125 -2.140625 C 5.71875 -2.460938 5.8125 -2.832031 5.8125 -3.25 C 5.8125 -3.664062 5.722656 -4.03125 5.546875 -4.34375 C 5.367188 -4.664062 5.125 -4.910156 4.8125 -5.078125 C 4.507812 -5.242188 4.164062 -5.328125 3.78125 -5.328125 C 3.394531 -5.328125 3.046875 -5.242188 2.734375 -5.078125 C 2.429688 -4.910156 2.191406 -4.664062 2.015625 -4.34375 C 1.835938 -4.03125 1.75 -3.664062 1.75 -3.25 C 1.75 -2.832031 1.835938 -2.460938 2.015625 -2.140625 C 2.191406 -1.828125 2.4375 -1.585938 2.75 -1.421875 C 3.0625 -1.253906 3.40625 -1.171875 3.78125 -1.171875 Z M 3.78125 -1.171875 "/></g></g></g><g fill="#00ffff" fill-opacity="1"><g transform="translate(134.515455, 49.069523)"><g><path d="M 0.484375 -6.515625 L 3.234375 -6.515625 C 3.972656 -6.515625 4.5625 -6.320312 5 -5.9375 C 5.4375 -5.550781 5.65625 -5.007812 5.65625 -4.3125 C 5.65625 -3.601562 5.4375 -3.0625 5 -2.6875 C 4.5625 -2.3125 3.972656 -2.125 3.234375 -2.125 L 1.90625 -2.125 L 1.90625 0 L 0.484375 0 Z M 3.015625 -3.296875 C 3.816406 -3.296875 4.21875 -3.632812 4.21875 -4.3125 C 4.21875 -4.695312 4.109375 -4.960938 3.890625 -5.109375 C 3.679688 -5.253906 3.390625 -5.328125 3.015625 -5.328125 L 1.90625 -5.328125 L 1.90625 -3.296875 Z M 3.015625 -3.296875 "/></g></g></g><g fill="#00ffff" fill-opacity="1"><g transform="translate(142.733403, 49.069523)"><g><path d="M 2.6875 -2.484375 L 0.296875 -6.515625 L 1.8125 -6.515625 L 3.390625 -3.8125 L 5.015625 -6.515625 L 6.515625 -6.515625 L 4.078125 -2.484375 L 4.078125 0 L 2.6875 0 Z M 2.6875 -2.484375 "/></g></g></g><g fill="#00ffff" fill-opacity="1"><g transform="translate(151.949216, 49.069523)"><g/></g></g><g fill="#00ffff" fill-opacity="1"><g transform="translate(157.602565, 49.069523)"><g><path d="M 3.828125 0.140625 C 3.128906 0.140625 2.507812 0.00390625 1.96875 -0.265625 C 1.4375 -0.546875 1.023438 -0.941406 0.734375 -1.453125 C 0.441406 -1.960938 0.296875 -2.5625 0.296875 -3.25 C 0.296875 -3.945312 0.441406 -4.550781 0.734375 -5.0625 C 1.023438 -5.570312 1.4375 -5.960938 1.96875 -6.234375 C 2.507812 -6.515625 3.128906 -6.65625 3.828125 -6.65625 C 4.722656 -6.65625 5.472656 -6.453125 6.078125 -6.046875 L 6.078125 -4.703125 C 5.804688 -4.929688 5.492188 -5.097656 5.140625 -5.203125 C 4.796875 -5.304688 4.398438 -5.359375 3.953125 -5.359375 C 3.265625 -5.359375 2.722656 -5.164062 2.328125 -4.78125 C 1.941406 -4.40625 1.75 -3.894531 1.75 -3.25 C 1.75 -2.601562 1.945312 -2.085938 2.34375 -1.703125 C 2.738281 -1.328125 3.273438 -1.140625 3.953125 -1.140625 C 4.410156 -1.140625 4.816406 -1.191406 5.171875 -1.296875 C 5.523438 -1.410156 5.851562 -1.59375 6.15625 -1.84375 L 6.15625 -0.5 C 5.582031 -0.0703125 4.804688 0.140625 3.828125 0.140625 Z M 3.828125 0.140625 "/></g></g></g><g fill="#00ffff" fill-opacity="1"><g transform="translate(166.454666, 49.069523)"><g><path d="M 2.90625 -6.515625 L 4.296875 -6.515625 L 6.90625 0 L 5.453125 0 L 4.890625 -1.421875 L 2.3125 -1.421875 L 1.75 0 L 0.296875 0 Z M 4.53125 -2.546875 L 3.59375 -5.03125 L 2.671875 -2.546875 Z M 4.53125 -2.546875 "/></g></g></g><g fill="#00ffff" fill-opacity="1"><g transform="translate(176.043508, 49.069523)"><g><path d="M 2.046875 -5.328125 L 0.140625 -5.328125 L 0.140625 -6.515625 L 5.359375 -6.515625 L 5.359375 -5.328125 L 3.453125 -5.328125 L 3.453125 0 L 2.046875 0 Z M 2.046875 -5.328125 "/></g></g></g><g fill="#00ffff" fill-opacity="1"><g transform="translate(183.931876, 49.069523)"><g/></g></g></svg>